<svg width="39" height="30" viewBox="0 0 39 30" fill="none" xmlns="http://www.w3.org/2000/svg">
<path d="M3.71429 17.6471C3.71429 13.3235 6.98286 9.75882 11.2914 8.98235L8.52429 11.6294L11.1429 14.1176L18.5714 7.04118L11.1429 0L8.52429 2.48823L11.4586 5.27647V5.38235C8.30145 5.74329 5.39267 7.1902 3.28155 9.44984C1.17043 11.7095 0.00309963 14.6254 0 17.6471C0 24.4765 5.81286 30 13 30H18.5714V26.4706H13C7.87429 26.4706 3.71429 22.5176 3.71429 17.6471ZM22.2857 17.6471V30H39V17.6471H22.2857ZM35.2857 26.4706H26V21.1765H35.2857V26.4706ZM22.2857 1.76471H39V14.1176H22.2857V1.76471Z" fill="black"/>
</svg>
