<svg width="38" height="33" viewBox="0 0 38 33" fill="none" xmlns="http://www.w3.org/2000/svg">
<path d="M33.7778 0H4.22222C1.9 0 0 1.65 0 3.66667V29.3333C0 31.35 1.9 33 4.22222 33H33.7778C36.1 33 38 31.35 38 29.3333V3.66667C38 1.65 36.1 0 33.7778 0ZM21.1744 7.44333L23.4122 5.5L26.3889 8.085L29.3656 5.5L31.6033 7.44333L28.6267 10.0283L31.6033 12.6133L29.3656 14.5567L26.3889 11.99L23.4122 14.575L21.1744 12.6317L24.1511 10.0467L21.1744 7.44333ZM6.86111 8.65333H17.4167V11.4033H6.86111V8.65333ZM17.9444 23.8333H13.7222V27.5H10.5556V23.8333H6.33333V21.0833H10.5556V17.4167H13.7222V21.0833H17.9444V23.8333ZM31.6667 26.125H21.1111V23.375H31.6667V26.125ZM31.6667 21.5417H21.1111V18.7917H31.6667V21.5417Z" fill="black"/>
</svg>
