<svg width="30" height="30" viewBox="0 0 30 30" fill="none" xmlns="http://www.w3.org/2000/svg">
<path d="M25.6125 25.6125L23.625 27.6L22.2938 26.2688L24.2813 24.2813L20.6438 20.6438L18.6562 22.6312L17.325 21.3L19.3125 19.3125L15.675 15.675L13.6875 17.6625L12.3563 16.3312L14.3437 14.3437L10.6875 10.6875L8.7 12.675L7.36875 11.3438L9.35625 9.35625L5.71875 5.71875L3.73125 7.70625L2.4 6.375L4.3875 4.3875L0 0V26.25C0 28.3125 1.6875 30 3.75 30H30L25.6125 25.6125ZM5.625 24.375V13.575L16.425 24.375H5.625Z" fill="black"/>
</svg>
